{
  "accessors": [
    {
      "bufferView": 2,
      "componentType": 5126,
      "count": 1167,
      "max": [
        0.88883697986602783,
        1.4454439878463745,
        -0.46985000371932983
      ],
      "min": [
        0.46469700336456299,
        1.0033739805221558,
        -0.89612001180648804
      ],
      "type": "VEC3"
    },
    {
      "bufferView": 2,
      "byteOffset": 14004,
      "componentType": 5126,
      "count": 1167,
      "max": [
        0.99889105558395386,
        0.99999052286148071,
        0.99845665693283081
      ],
      "min": [
        -0.99895310401916504,
        -0.9198194146156311,
        -0.99892932176589966
      ],
      "type": "VEC3"
    },
    {
      "bufferView": 3,
      "componentType": 5126,
      "count": 1167,
      "max": [
        0.9999992847442627,
        0.9989655613899231,
        0.99816840887069702,
        1
      ],
      "min": [
        -0.99489963054656982,
        -0.99914371967315674,
        -0.99826627969741821,
        -1
      ],
      "type": "VEC4"
    },
    {
      "bufferView": 1,
      "componentType": 5126,
      "count": 1167,
      "max": [
        0.99900001287460327,
        0.96601259708404541
      ],
      "min": [
        -35.193157196044922,
        -14.07247257232666
      ],
      "type": "VEC2"
    },
    {
      "bufferView": 0,
      "componentType": 5125,
      "count": 1626,
      "max": [
        1166
      ],
      "min": [
        0
      ],
      "type": "SCALAR"
    },
    {
      "bufferView": 2,
      "byteOffset": 28008,
      "componentType": 5126,
      "count": 118,
      "max": [
        0.037916999310255051,
        1.1072640419006348,
        -0.53867000341415405
      ],
      "min": [
        -0.20057900249958038,
        1.0174740552902222,
        -0.86058998107910156
      ],
      "type": "VEC3"
    },
    {
      "bufferView": 2,
      "byteOffset": 29424,
      "componentType": 5126,
      "count": 118,
      "max": [
        0.9983404278755188,
        0.9999890923500061,
        0.99833101034164429
      ],
      "min": [
        -0.99834007024765015,
        -0.44809603691101074,
        -0.99833381175994873
      ],
      "type": "VEC3"
    },
    {
      "bufferView": 3,
      "byteOffset": 18672,
      "componentType": 5126,
      "count": 118,
      "max": [
        0.9983411431312561,
        -0.00019678006356116384,
        0.99832987785339355,
        1
      ],
      "min": [
        -0.44711560010910034,
        -0.99998843669891357,
        -0.080319851636886597,
        -1
      ],
      "type": "VEC4"
    },
    {
      "bufferView": 1,
      "byteOffset": 9336,
      "componentType": 5126,
      "count": 118,
      "max": [
        0.49801042675971985,
        0.99800002574920654
      ],
      "min": [
        0.1269957423210144,
        0.84599810838699341
      ],
      "type": "VEC2"
    },
    {
      "bufferView": 0,
      "byteOffset": 6504,
      "componentType": 5125,
      "count": 156,
      "max": [
        117
      ],
      "min": [
        0
      ],
      "type": "SCALAR"
    },
    {
      "bufferView": 2,
      "byteOffset": 30840,
      "componentType": 5126,
      "count": 1836,
      "max": [
        0.9277769923210144,
        1.239874005317688,
        0.055275999009609222
      ],
      "min": [
        -0.35048800706863403,
        -0.0046839998103678226,
        -0.93936997652053833
      ],
      "type": "VEC3"
    },
    {
      "bufferView": 2,
      "byteOffset": 52872,
      "componentType": 5126,
      "count": 1836,
      "max": [
        0.99991518259048462,
        0.99998915195465088,
        0.99990707635879517
      ],
      "min": [
        -0.99991399049758911,
        -0.99998950958251953,
        -0.99990427494049072
      ],
      "type": "VEC3"
    },
    {
      "bufferView": 3,
      "byteOffset": 20560,
      "componentType": 5126,
      "count": 1836,
      "max": [
        0.99991822242736816,
        0.99865627288818359,
        0.9999045729637146,
        1
      ],
      "min": [
        -0.99991607666015625,
        -0.99998992681503296,
        -0.99990361928939819,
        -1
      ],
      "type": "VEC4"
    },
    {
      "bufferView": 1,
      "byteOffset": 10280,
      "componentType": 5126,
      "count": 1836,
      "max": [
        1,
        0.99800002574920654
      ],
      "min": [
        0.0019749065395444632,
        0.12691593170166016
      ],
      "type": "VEC2"
    },
    {
      "bufferView": 0,
      "byteOffset": 7128,
      "componentType": 5125,
      "count": 2310,
      "max": [
        1835
      ],
      "min": [
        0
      ],
      "type": "SCALAR"
    }
  ],
  "asset": {
    "extras": {
      "author": "filipeb2011 (https://sketchfab.com/filipeb2011)",
      "license": "CC-BY-4.0 (http://creativecommons.org/licenses/by/4.0/)",
      "source": "https://sketchfab.com/models/3b81f6181d3e4a868c6d51ab47f5a2a8",
      "title": "Old Table And Chair"
    },
    "generator": "Sketchfab-3.18.5",
    "version": "2.0"
  },
  "bufferViews": [
    {
      "buffer": 0,
      "byteLength": 16368,
      "byteOffset": 0,
      "name": "floatBufferViews",
      "target": 34963
    },
    {
      "buffer": 0,
      "byteLength": 24968,
      "byteOffset": 16368,
      "byteStride": 8,
      "name": "floatBufferViews",
      "target": 34962
    },
    {
      "buffer": 0,
      "byteLength": 74904,
      "byteOffset": 41336,
      "byteStride": 12,
      "name": "floatBufferViews",
      "target": 34962
    },
    {
      "buffer": 0,
      "byteLength": 49936,
      "byteOffset": 116240,
      "byteStride": 16,
      "name": "floatBufferViews",
      "target": 34962
    }
  ],
  "buffers": [
    {
      "byteLength": 166176,
      "uri": "scene.bin"
    }
  ],
  "images": [
    {
      "uri": "textures/auto_5_baseColor.jpeg"
    }
  ],
  "materials": [
    {
      "doubleSided": true,
      "emissiveFactor": [
        0,
        0,
        0
      ],
      "name": "auto_5",
      "pbrMetallicRoughness": {
        "baseColorFactor": [
          1,
          1,
          1,
          1
        ],
        "baseColorTexture": {
          "index": 0,
          "texCoord": 0
        },
        "metallicFactor": 0,
        "roughnessFactor": 0.93021349659999997
      }
    }
  ],
  "meshes": [
    {
      "name": "Mesh1__auto_5_0",
      "primitives": [
        {
          "attributes": {
            "NORMAL": 1,
            "POSITION": 0,
            "TANGENT": 2,
            "TEXCOORD_0": 3
          },
          "indices": 4,
          "material": 0,
          "mode": 4
        }
      ]
    },
    {
      "name": "Mesh2__auto_5_0",
      "primitives": [
        {
          "attributes": {
            "NORMAL": 6,
            "POSITION": 5,
            "TANGENT": 7,
            "TEXCOORD_0": 8
          },
          "indices": 9,
          "material": 0,
          "mode": 4
        }
      ]
    },
    {
      "name": "Mesh3__auto_5_0",
      "primitives": [
        {
          "attributes": {
            "NORMAL": 11,
            "POSITION": 10,
            "TANGENT": 12,
            "TEXCOORD_0": 13
          },
          "indices": 14,
          "material": 0,
          "mode": 4
        }
      ]
    }
  ],
  "nodes": [
    {
      "children": [
        1
      ],
      "name": "RootNode (gltf orientation matrix)",
      "rotation": [
        -0.70710678118654746,
        -0,
        -0,
        0.70710678118654757
      ]
    },
    {
      "children": [
        2
      ],
      "name": "RootNode (model correction matrix)"
    },
    {
      "children": [
        3
      ],
      "matrix": [
        1,
        0,
        0,
        0,
        0,
        0,
        1,
        0,
        0,
        -1,
        0,
        0,
        0,
        0,
        0,
        1
      ],
      "name": "old table and chair.fbx"
    },
    {
      "children": [
        4
      ],
      "name": "RootNode"
    },
    {
      "children": [
        5
      ],
      "name": "Model"
    },
    {
      "children": [
        6
      ],
      "name": "silent_hill_3___schreibtisch1"
    },
    {
      "children": [
        7,
        10,
        13
      ],
      "name": "skpBD3A1"
    },
    {
      "children": [
        8
      ],
      "name": "Group1"
    },
    {
      "children": [
        9
      ],
      "name": "Mesh1"
    },
    {
      "mesh": 0,
      "name": "Mesh1__auto_5_0"
    },
    {
      "children": [
        11
      ],
      "name": "Group2"
    },
    {
      "children": [
        12
      ],
      "name": "Mesh2"
    },
    {
      "mesh": 1,
      "name": "Mesh2__auto_5_0"
    },
    {
      "children": [
        14
      ],
      "name": "Mesh3"
    },
    {
      "mesh": 2,
      "name": "Mesh3__auto_5_0"
    }
  ],
  "samplers": [
    {
      "magFilter": 9729,
      "minFilter": 9987,
      "wrapS": 10497,
      "wrapT": 10497
    }
  ],
  "scene": 0,
  "scenes": [
    {
      "name": "OSG_Scene",
      "nodes": [
        0
      ]
    }
  ],
  "textures": [
    {
      "sampler": 0,
      "source": 0
    }
  ]
}

